<?xml version="1.0" standalone="no"?>
<!DOCTYPE svg PUBLIC "-//W3C//DTD SVG 20010904//EN"
 "http://www.w3.org/TR/2001/REC-SVG-20010904/DTD/svg10.dtd">
<svg version="1.0" xmlns="http://www.w3.org/2000/svg"
 width="1199.000000pt" height="1280.000000pt" viewBox="0 0 1199.000000 1280.000000"
 preserveAspectRatio="xMidYMid meet">
<metadata>
Created by potrace 1.15, written by Peter Selinger 2001-2017
</metadata>
<g transform="translate(0.000000,1280.000000) scale(0.100000,-0.100000)"
fill="#000000" stroke="none">
<path d="M5900 11434 c-194 -19 -284 -42 -555 -145 -728 -279 -1494 -776
-2181 -1416 -808 -754 -1442 -1720 -1644 -2508 -16 -60 -40 -150 -54 -198 -29
-102 -61 -251 -76 -358 -13 -84 -23 -268 -45 -814 -15 -374 -49 -1073 -60
-1210 -16 -207 -85 -1458 -85 -1538 0 -36 4 -56 10 -52 6 4 10 -17 10 -57 l0
-64 70 -69 c38 -37 67 -72 65 -75 -3 -4 5 -16 18 -26 l22 -19 -20 25 -20 25
22 -18 c12 -11 20 -24 17 -30 -6 -18 194 -251 373 -433 308 -314 588 -562 621
-549 7 2 11 1 8 -4 -7 -10 144 -81 244 -114 118 -40 236 -51 448 -44 162 6
569 42 842 76 152 19 782 83 935 96 39 3 90 7 115 10 54 6 566 45 1045 80 193
14 472 34 620 45 336 24 858 62 1308 95 437 31 778 52 1087 65 345 15 483 35
576 83 63 32 124 98 158 170 46 96 62 217 76 572 6 154 17 390 25 525 8 135
20 326 25 425 6 99 15 254 20 345 6 91 19 320 30 510 11 190 24 423 30 518 5
94 15 252 20 350 34 581 61 1006 75 1162 3 30 7 87 10 125 12 145 67 661 85
790 6 39 15 122 20 185 10 111 16 166 25 240 6 50 13 115 27 285 18 214 18
1068 -1 1150 -45 203 -156 406 -329 604 -390 448 -654 744 -742 832 -114 114
-273 256 -251 224 7 -11 -13 8 -46 43 -51 54 -64 62 -95 62 -20 0 -38 6 -41
13 -4 14 -155 13 -932 -3 -647 -14 -1027 -12 -1310 5 -216 13 -503 17 -595 9z"/>
</g>
</svg>
